<svg id="Calque_1" data-name="Calque 1" xmlns="http://www.w3.org/2000/svg" viewBox="0 0 137 93"><defs><style>.cls-1{fill:#00b0cc;}.cls-2,.cls-3{fill:#001e57;}.cls-3,.cls-4{fill-rule:evenodd;}.cls-4{fill:#0e2356;}.cls-5{fill:#1d1d1b;}.cls-6{fill:#ffb600;}</style></defs><title>Plan de travail 1 copie</title><path class="cls-1" d="M135.3,3.84a2.4,2.4,0,1,1-3.39,0A2.41,2.41,0,0,1,135.3,3.84Z"/><path class="cls-1" d="M125.75,13.35a2.39,2.39,0,1,1-3.38,0A2.38,2.38,0,0,1,125.75,13.35Z"/><polygon class="cls-2" points="101.4 3.1 69.78 3.1 69.78 10.37 82.01 10.37 82.01 35.5 89.17 35.5 89.17 10.37 101.4 10.37 101.4 3.1"/><path class="cls-3" d="M54.43,28.75a9.41,9.41,0,0,1,0-18.81A9.29,9.29,0,0,1,60.3,12l4.84-4.84a16.21,16.21,0,1,0-10.71,28.4,16.07,16.07,0,0,0,10.66-4l-4.84-4.83A9.33,9.33,0,0,1,54.43,28.75Z"/><path class="cls-3" d="M17.32,15.57a3.81,3.81,0,1,0,3.8,3.81A3.8,3.8,0,0,0,17.32,15.57Zm0,6.73a2.92,2.92,0,1,1,2.9-2.92A2.91,2.91,0,0,1,17.32,22.3Z"/><path class="cls-3" d="M26.58,19.35A9.38,9.38,0,1,1,17.2,9.94,9.4,9.4,0,0,1,26.58,19.35ZM17.2,3.12A16.23,16.23,0,1,0,33.39,19.35,16.23,16.23,0,0,0,17.2,3.12Z"/><path class="cls-2" d="M17.35,17.5a1.89,1.89,0,1,1-1.88,1.88A1.88,1.88,0,0,1,17.35,17.5Z"/><path class="cls-4" d="M119.79,3.12A16.23,16.23,0,1,0,136,19.35,16.23,16.23,0,0,0,119.79,3.12Zm0,25.63a9.41,9.41,0,1,1,9.39-9.4A9.4,9.4,0,0,1,119.79,28.75Z"/><path class="cls-2" d="M119.79,3.12A16.23,16.23,0,1,0,136,19.35,16.23,16.23,0,0,0,119.79,3.12Zm0,25.63a9.41,9.41,0,1,1,9.39-9.4A9.4,9.4,0,0,1,119.79,28.75Z"/><rect class="cls-5" x="48.78" y="65.06" width="87.18" height="0.71"/><path class="cls-5" d="M5.14,73.37H8.83l4.05,12.44h-3l-.86-2.76H4.54l-.85,2.76H1Zm0,7.67h3.3L6.82,75.67Z"/><path class="cls-5" d="M17.73,86a5.58,5.58,0,0,1-1.86-.3,4.07,4.07,0,0,1-1.5-.9,4.15,4.15,0,0,1-1-1.45,5.05,5.05,0,0,1-.36-2v-.14a5.21,5.21,0,0,1,.37-2,4.39,4.39,0,0,1,1-1.5,4.48,4.48,0,0,1,1.5-.94,5.27,5.27,0,0,1,1.84-.32,6.05,6.05,0,0,1,1.53.19,3.83,3.83,0,0,1,1.33.6,3.31,3.31,0,0,1,1,1.09A4.21,4.21,0,0,1,22.05,80h-2.4a1.77,1.77,0,0,0-.58-1.17,1.91,1.91,0,0,0-1.27-.38,2,2,0,0,0-1.59.7,3,3,0,0,0-.6,2v.14a3.15,3.15,0,0,0,.59,2.07,2,2,0,0,0,1.65.69,2.07,2.07,0,0,0,1.32-.43,1.8,1.8,0,0,0,.64-1.31H22.1a4,4,0,0,1-.37,1.49A3.47,3.47,0,0,1,20.86,85a4,4,0,0,1-1.35.75A5.46,5.46,0,0,1,17.73,86Z"/><path class="cls-5" d="M27.31,86a5.67,5.67,0,0,1-1.86-.3,4.07,4.07,0,0,1-1.5-.9,4.13,4.13,0,0,1-1-1.45,5.05,5.05,0,0,1-.36-2v-.14a5,5,0,0,1,.37-2,4.36,4.36,0,0,1,1-1.5,4.48,4.48,0,0,1,1.5-.94,5.31,5.31,0,0,1,1.84-.32,6.05,6.05,0,0,1,1.53.19,3.88,3.88,0,0,1,1.34.6,3.4,3.4,0,0,1,1,1.09A4.05,4.05,0,0,1,31.63,80H29.24a1.82,1.82,0,0,0-.59-1.17,1.91,1.91,0,0,0-1.27-.38,2,2,0,0,0-1.59.7,3,3,0,0,0-.59,2v.14a3.15,3.15,0,0,0,.58,2.07,2.28,2.28,0,0,0,3,.26,1.8,1.8,0,0,0,.64-1.31h2.29a4,4,0,0,1-.36,1.49A3.36,3.36,0,0,1,30.44,85a4.06,4.06,0,0,1-1.34.75A5.52,5.52,0,0,1,27.31,86Z"/><path class="cls-5" d="M37,86a5.57,5.57,0,0,1-1.9-.31,4.31,4.31,0,0,1-2.51-2.37,4.9,4.9,0,0,1-.36-1.94v-.14a5.06,5.06,0,0,1,.36-1.95,4.32,4.32,0,0,1,1-1.5,4.38,4.38,0,0,1,1.48-1,5.13,5.13,0,0,1,1.86-.34,5.25,5.25,0,0,1,1.69.27A4,4,0,0,1,40,77.6,4,4,0,0,1,41,79a5.56,5.56,0,0,1,.36,2.1v.7H34.76a2.67,2.67,0,0,0,.64,1.76,2.13,2.13,0,0,0,1.64.62,2.07,2.07,0,0,0,1.33-.35,1.52,1.52,0,0,0,.57-.92h2.4A3.28,3.28,0,0,1,40,85.21,5.15,5.15,0,0,1,37,86Zm1.93-5.72a2.3,2.3,0,0,0-.58-1.54,2.19,2.19,0,0,0-2.82,0,2.51,2.51,0,0,0-.69,1.51Z"/><path class="cls-5" d="M42.84,76.71h2.54v1.45A3,3,0,0,1,46.46,77a3.4,3.4,0,0,1,1.89-.49,3.51,3.51,0,0,1,1.24.21,2.75,2.75,0,0,1,1,.63,3,3,0,0,1,.63,1.1A5,5,0,0,1,51.43,80v5.79H48.89V80.38A2.12,2.12,0,0,0,48.51,79a1.54,1.54,0,0,0-1.23-.44,1.79,1.79,0,0,0-1.9,2v5.25H42.84Z"/><path class="cls-5" d="M56.41,86a3,3,0,0,1-2.2-.73,2.83,2.83,0,0,1-.75-2.14V78.5H52.28V76.71h1.18v-2H56v2H57.9V78.5H56v4.39a1.14,1.14,0,0,0,.26.81A1,1,0,0,0,57,84a2.67,2.67,0,0,0,.51,0,1.67,1.67,0,0,0,.45-.13v1.95a4.72,4.72,0,0,1-1.54.25Z"/><path class="cls-5" d="M61.83,86a3.53,3.53,0,0,1-1.23-.2,2.66,2.66,0,0,1-1-.61A2.8,2.8,0,0,1,59,84.12a4.49,4.49,0,0,1-.24-1.54V76.71h2.52v5.52a2,2,0,0,0,.4,1.36,1.49,1.49,0,0,0,1.19.47,1.83,1.83,0,0,0,1.91-2V76.71h2.51v9.1H64.74V84.39a3,3,0,0,1-1.06,1.15A3.32,3.32,0,0,1,61.83,86Z"/><path class="cls-5" d="M69,76.71H71.5v1.74a3,3,0,0,1,3-1.88v2.35a3.8,3.8,0,0,0-2.19.51,2,2,0,0,0-.77,1.82v4.56H69Z"/><path class="cls-5" d="M79.63,86a5.57,5.57,0,0,1-1.9-.31,4.07,4.07,0,0,1-1.51-.92,4.14,4.14,0,0,1-1-1.45,4.9,4.9,0,0,1-.36-1.94v-.14a5.06,5.06,0,0,1,.36-1.95,4.43,4.43,0,0,1,1-1.5,4.52,4.52,0,0,1,1.49-1,5.11,5.11,0,0,1,1.85-.34,5.31,5.31,0,0,1,1.7.27,4,4,0,0,1,1.42.83,4,4,0,0,1,1,1.43,5.56,5.56,0,0,1,.36,2.1v.7H77.43a2.67,2.67,0,0,0,.64,1.76,2.12,2.12,0,0,0,1.63.62A2.08,2.08,0,0,0,81,83.86a1.52,1.52,0,0,0,.57-.92H84a3.28,3.28,0,0,1-1.36,2.27A5.15,5.15,0,0,1,79.63,86Zm1.93-5.72A2.3,2.3,0,0,0,81,78.74a2.19,2.19,0,0,0-2.82,0,2.51,2.51,0,0,0-.69,1.51Z"/><path class="cls-6" d="M89.89,74.09h3a7,7,0,0,1,2.55.43,5,5,0,0,1,1.81,1.18,4.79,4.79,0,0,1,1.07,1.76,6.87,6.87,0,0,1,.35,2.21v.14A6.92,6.92,0,0,1,98.34,82a4.8,4.8,0,0,1-1.06,1.8A5.07,5.07,0,0,1,95.47,85a7,7,0,0,1-2.59.43h-3Zm3,10.25A5.38,5.38,0,0,0,94.77,84a3.64,3.64,0,0,0,1.37-.9A3.9,3.9,0,0,0,97,81.69a5.8,5.8,0,0,0,.28-1.88v-.13A6.09,6.09,0,0,0,97,77.87a3.51,3.51,0,0,0-2.15-2.34,5.75,5.75,0,0,0-2-.32H91.28v9.13Z"/><path class="cls-6" d="M101.77,75.41a.83.83,0,0,1-.62-.25.87.87,0,0,1,0-1.24.83.83,0,0,1,.62-.25.84.84,0,0,1,.62.25.87.87,0,0,1,0,1.24A.84.84,0,0,1,101.77,75.41Zm-.64,1.73h1.32v8.31h-1.32Z"/><path class="cls-6" d="M108.7,88.49a5.47,5.47,0,0,1-1.61-.21,3.61,3.61,0,0,1-1.13-.55,2.6,2.6,0,0,1-.71-.81,3.14,3.14,0,0,1-.34-1h1.36c.19,1,1,1.45,2.41,1.45a3,3,0,0,0,2-.62,2.39,2.39,0,0,0,.72-1.94V83.61a2.48,2.48,0,0,1-.47.59,3.34,3.34,0,0,1-.67.5,4.41,4.41,0,0,1-.8.35,3,3,0,0,1-.88.13,3.81,3.81,0,0,1-1.52-.29,3.65,3.65,0,0,1-1.21-.82,4,4,0,0,1-.79-1.25,4.23,4.23,0,0,1-.28-1.58v-.11a4.43,4.43,0,0,1,.28-1.59,4.16,4.16,0,0,1,.8-1.32,3.54,3.54,0,0,1,1.23-.89,3.76,3.76,0,0,1,1.58-.33,3,3,0,0,1,1.71.44,3.26,3.26,0,0,1,1,1V77.14h1.33V84.9a3.71,3.71,0,0,1-.31,1.58,3,3,0,0,1-.83,1.12,3.4,3.4,0,0,1-1.25.66A5.38,5.38,0,0,1,108.7,88.49Zm0-4.42a2.8,2.8,0,0,0,1.08-.2,2.53,2.53,0,0,0,.87-.57,2.61,2.61,0,0,0,.57-.91,3.47,3.47,0,0,0,.21-1.24V81a3.07,3.07,0,0,0-.71-2.16,2.52,2.52,0,0,0-1.94-.77,2.87,2.87,0,0,0-1.12.22,2.42,2.42,0,0,0-.83.61,2.94,2.94,0,0,0-.52.94,3.76,3.76,0,0,0-.18,1.19v.12a3.23,3.23,0,0,0,.21,1.21,2.68,2.68,0,0,0,.55.9,2.3,2.3,0,0,0,.81.57A2.45,2.45,0,0,0,108.68,84.07Z"/><path class="cls-6" d="M116.23,75.41a.84.84,0,0,1-.62-.25.87.87,0,0,1,0-1.24.84.84,0,0,1,.62-.25.83.83,0,0,1,.62.25.87.87,0,0,1,0,1.24A.83.83,0,0,1,116.23,75.41Zm-.64,1.73h1.33v8.31h-1.33Z"/><path class="cls-6" d="M122.36,85.56a2.21,2.21,0,0,1-1.7-.6,2.25,2.25,0,0,1-.55-1.59V78.26h-1.2V77.14h1.2V75.25h1.33v1.89h1.94v1.12h-1.94v5c0,.81.34,1.21,1,1.21a2.33,2.33,0,0,0,.56,0,3.09,3.09,0,0,0,.46-.12v1.11a3.71,3.71,0,0,1-.46.13A4.06,4.06,0,0,1,122.36,85.56Z"/><path class="cls-6" d="M127.85,85.6a3.81,3.81,0,0,1-1.08-.15,2.4,2.4,0,0,1-.89-.44,2.11,2.11,0,0,1-.59-.76,2.66,2.66,0,0,1-.22-1.1,2,2,0,0,1,.36-1.21,2.49,2.49,0,0,1,.93-.79,4.8,4.8,0,0,1,1.34-.44,9,9,0,0,1,1.56-.13h1.2V80a2,2,0,0,0-.42-1.43,1.83,1.83,0,0,0-1.37-.44c-1.15,0-1.79.5-1.92,1.48h-1.32a2.74,2.74,0,0,1,.36-1.21,2.49,2.49,0,0,1,.75-.8,2.93,2.93,0,0,1,1-.44,5.06,5.06,0,0,1,1.17-.14,4.89,4.89,0,0,1,1.15.14,2.44,2.44,0,0,1,1,.47,2.47,2.47,0,0,1,.67.92,3.53,3.53,0,0,1,.26,1.44v5.48h-1.32v-1a3.09,3.09,0,0,1-1.07.89A3.35,3.35,0,0,1,127.85,85.6Zm.13-1a3.41,3.41,0,0,0,1-.14,2.2,2.2,0,0,0,.78-.39,1.82,1.82,0,0,0,.52-.62,1.84,1.84,0,0,0,.2-.85v-1h-1.15a6.92,6.92,0,0,0-1.16.09,3.29,3.29,0,0,0-.93.28,1.49,1.49,0,0,0-.6.5,1.27,1.27,0,0,0-.22.77,1.43,1.43,0,0,0,.35,1A1.66,1.66,0,0,0,128,84.55Z"/><path class="cls-6" d="M134.61,73.17H136V85.45h-1.34Z"/><path class="cls-2" d="M3.36,45.61H1.06V44H7.45v1.57H5.14v6.51H3.36Z"/><path class="cls-2" d="M20.36,51.16a2.77,2.77,0,0,1-1,.81,3,3,0,0,1-1.3.29,3.46,3.46,0,0,1-1.21-.21,2.83,2.83,0,0,1-1-.58,2.77,2.77,0,0,1-.66-.92,3.12,3.12,0,0,1,0-2.4,2.67,2.67,0,0,1,.66-.92,2.85,2.85,0,0,1,1-.59,3.45,3.45,0,0,1,1.21-.2,2.73,2.73,0,0,1,1.08.2,2.3,2.3,0,0,1,.82.59,2.66,2.66,0,0,1,.52.92,3.78,3.78,0,0,1,.18,1.2v.53h-4a1.33,1.33,0,0,0,.44.79,1.29,1.29,0,0,0,.85.29,1.23,1.23,0,0,0,.71-.19,2.15,2.15,0,0,0,.51-.49Zm-1.45-2.44a1,1,0,0,0-1.05-1,1.36,1.36,0,0,0-.51.09A1.54,1.54,0,0,0,17,48a1.16,1.16,0,0,0-.24.34,1,1,0,0,0-.09.39Z"/><path class="cls-2" d="M33.65,48.37a.88.88,0,0,0-.35-.31,1,1,0,0,0-.49-.12,1.3,1.3,0,0,0-1,.39,1.44,1.44,0,0,0-.36,1,1.4,1.4,0,0,0,.36,1,1.3,1.3,0,0,0,1,.39,1,1,0,0,0,.49-.12,2,2,0,0,0,.35-.3l1.13,1.19a2.17,2.17,0,0,1-.94.57,3.26,3.26,0,0,1-1,.17,3.46,3.46,0,0,1-1.21-.21,2.83,2.83,0,0,1-1-.58,2.77,2.77,0,0,1-.66-.92,3.12,3.12,0,0,1,0-2.4,2.67,2.67,0,0,1,.66-.92,2.85,2.85,0,0,1,1-.59,3.45,3.45,0,0,1,1.21-.2,3.54,3.54,0,0,1,1,.16,2.1,2.1,0,0,1,.94.58Z"/><path class="cls-2" d="M45.35,43.49v3.84h0a1,1,0,0,1,.19-.32,1.58,1.58,0,0,1,.34-.29,1.7,1.7,0,0,1,.45-.2,1.79,1.79,0,0,1,.57-.08,2.23,2.23,0,0,1,1,.2,1.47,1.47,0,0,1,.63.55,2.34,2.34,0,0,1,.3.83,6.76,6.76,0,0,1,.08,1v3.06H47.27V49.41c0-.16,0-.33,0-.5a1.86,1.86,0,0,0-.1-.48.85.85,0,0,0-.27-.35.8.8,0,0,0-.51-.14,1,1,0,0,0-.53.12.89.89,0,0,0-.32.32,1.39,1.39,0,0,0-.14.45,4.58,4.58,0,0,0,0,.53v2.76H43.63V43.49Z"/><path class="cls-2" d="M58.42,46.57h1.65v.76h0a1.12,1.12,0,0,1,.23-.32,1.64,1.64,0,0,1,.35-.29,2.22,2.22,0,0,1,.47-.2,1.79,1.79,0,0,1,.57-.08,2.23,2.23,0,0,1,1,.2,1.47,1.47,0,0,1,.63.55,2.16,2.16,0,0,1,.3.83,6.76,6.76,0,0,1,.08,1v3.06H62.06V49.41c0-.16,0-.33,0-.5a1.86,1.86,0,0,0-.1-.48.85.85,0,0,0-.27-.35.78.78,0,0,0-.5-.14,1.05,1.05,0,0,0-.54.12.89.89,0,0,0-.32.32,1.39,1.39,0,0,0-.14.45,4.58,4.58,0,0,0,0,.53v2.76H58.42Z"/><path class="cls-2" d="M73,49.35a2.92,2.92,0,0,1,.24-1.2,2.67,2.67,0,0,1,.66-.92,2.76,2.76,0,0,1,1-.59,3.4,3.4,0,0,1,1.2-.2,3.45,3.45,0,0,1,1.21.2,3,3,0,0,1,1,.59,2.67,2.67,0,0,1,.66.92,3.12,3.12,0,0,1,0,2.4,2.77,2.77,0,0,1-.66.92,2.93,2.93,0,0,1-1,.58,3.46,3.46,0,0,1-1.21.21,3.4,3.4,0,0,1-1.2-.21,2.74,2.74,0,0,1-1-.58,2.77,2.77,0,0,1-.66-.92A2.92,2.92,0,0,1,73,49.35Zm1.71,0a1.4,1.4,0,0,0,.36,1,1.31,1.31,0,0,0,1,.39,1.3,1.3,0,0,0,1-.39,1.4,1.4,0,0,0,.36-1,1.44,1.44,0,0,0-.36-1,1.3,1.3,0,0,0-1-.39,1.31,1.31,0,0,0-1,.39A1.44,1.44,0,0,0,74.72,49.35Z"/><path class="cls-2" d="M88.44,43.49h1.71v8.63H88.44Z"/><path class="cls-2" d="M99.41,49.35a2.92,2.92,0,0,1,.24-1.2,2.67,2.67,0,0,1,.66-.92,3,3,0,0,1,1-.59,3.45,3.45,0,0,1,1.21-.2,3.4,3.4,0,0,1,1.2.2,2.9,2.9,0,0,1,1,.59,2.79,2.79,0,0,1,.65.92,2.93,2.93,0,0,1-.65,3.32,2.88,2.88,0,0,1-1,.58,3.4,3.4,0,0,1-1.2.21,3.46,3.46,0,0,1-1.21-.21,2.93,2.93,0,0,1-1-.58,2.77,2.77,0,0,1-.66-.92A2.92,2.92,0,0,1,99.41,49.35Zm1.72,0a1.4,1.4,0,0,0,.36,1,1.3,1.3,0,0,0,1,.39,1.31,1.31,0,0,0,1-.39,1.4,1.4,0,0,0,.36-1,1.44,1.44,0,0,0-.36-1,1.31,1.31,0,0,0-1-.39,1.3,1.3,0,0,0-1,.39A1.44,1.44,0,0,0,101.13,49.35Z"/><path class="cls-2" d="M120.65,51.66a3.3,3.3,0,0,1-.8,2.39,3.23,3.23,0,0,1-2.41.81A6.56,6.56,0,0,1,116,54.7a3.33,3.33,0,0,1-1.32-.65l.95-1.41a3.35,3.35,0,0,0,.84.52,2.32,2.32,0,0,0,1,.2,1.53,1.53,0,0,0,1.16-.39,1.32,1.32,0,0,0,.37-1v-.54h0a1.58,1.58,0,0,1-.74.57,2.33,2.33,0,0,1-.82.16,2.83,2.83,0,0,1-1.12-.21,2.53,2.53,0,0,1-.87-.59,2.7,2.7,0,0,1-.55-.91,3.55,3.55,0,0,1,0-2.23,2.84,2.84,0,0,1,.51-.92,2.38,2.38,0,0,1,.79-.65,2.3,2.3,0,0,1,1.06-.24,2.37,2.37,0,0,1,.67.08,2.63,2.63,0,0,1,.54.2,1.84,1.84,0,0,1,.41.28,1.54,1.54,0,0,1,.28.3h0v-.73h1.58Zm-4.32-2.35a1.27,1.27,0,0,0,.1.52,1.46,1.46,0,0,0,.29.44,1.71,1.71,0,0,0,.44.3,1.19,1.19,0,0,0,.54.11,1.24,1.24,0,0,0,.54-.11,1.9,1.9,0,0,0,.44-.3,1.46,1.46,0,0,0,.29-.44,1.27,1.27,0,0,0,.1-.52,1.34,1.34,0,0,0-.1-.52,1.55,1.55,0,0,0-.29-.43,1.43,1.43,0,0,0-.44-.3,1.25,1.25,0,0,0-.54-.12,1.19,1.19,0,0,0-.54.12,1.32,1.32,0,0,0-.44.3,1.55,1.55,0,0,0-.29.43A1.34,1.34,0,0,0,116.33,49.31Z"/><path class="cls-2" d="M133.45,53c-.11.29-.23.56-.33.78a1.9,1.9,0,0,1-.41.58,1.5,1.5,0,0,1-.62.35,3.34,3.34,0,0,1-1,.12,3.9,3.9,0,0,1-1.28-.2l.23-1.41a1.84,1.84,0,0,0,.8.18,1.44,1.44,0,0,0,.46-.07.73.73,0,0,0,.31-.18,1.24,1.24,0,0,0,.2-.29l.17-.4.12-.32-2.43-5.6h1.85L133,50.24h0l1.22-3.67H136Z"/><path class="cls-5" d="M1.06,62.56h2A2.32,2.32,0,0,1,4.7,63a1.66,1.66,0,0,1,.5,1.28v0a1.53,1.53,0,0,1-.52,1.23A2.29,2.29,0,0,1,3.17,66H2.68v1.67H1.06ZM3,64.92c.43,0,.65-.19.65-.57v0a.52.52,0,0,0-.16-.43A.81.81,0,0,0,3,63.77H2.68v1.15Z"/><path class="cls-5" d="M8.51,62.56H10.6l1.6,5.11H10.49l-.24-.85H8.64l-.23.85H6.9Zm.43,3.16h1l-.5-1.85Z"/><path class="cls-5" d="M14.58,62.56h2.09a2.57,2.57,0,0,1,1.6.42,1.49,1.49,0,0,1,.53,1.24v0a1.35,1.35,0,0,1-.24.84,1.49,1.49,0,0,1-.62.49l1.16,2.09H17.4l-.95-1.75H16.2v1.75H14.58Zm2,2.32c.45,0,.67-.19.67-.56v0a.46.46,0,0,0-.17-.4.91.91,0,0,0-.49-.11H16.2v1.1Z"/><path class="cls-5" d="M22.33,63.8H21V62.56h4.21V63.8H24v3.87H22.33Z"/><path class="cls-5" d="M33.31,67.76a3,3,0,0,1-1.12-.19,2.25,2.25,0,0,1-.85-.54,2.17,2.17,0,0,1-.54-.82,3,3,0,0,1-.18-1.06v-.06A2.62,2.62,0,0,1,30.83,64a2.46,2.46,0,0,1,.57-.83,2.72,2.72,0,0,1,.87-.52,3.12,3.12,0,0,1,1.07-.19,3.24,3.24,0,0,1,1.09.18,2.48,2.48,0,0,1,.87.5,2.27,2.27,0,0,1,.58.81,2.77,2.77,0,0,1,.2,1.08v0a2.9,2.9,0,0,1-.19,1.09,2.34,2.34,0,0,1-.56.84,2.71,2.71,0,0,1-.88.54A3.17,3.17,0,0,1,33.31,67.76Zm0-1.27a.94.94,0,0,0,.76-.35,1.63,1.63,0,0,0,.28-1v-.06a1.52,1.52,0,0,0-.29-1,.93.93,0,0,0-.77-.34.92.92,0,0,0-.75.34,1.48,1.48,0,0,0-.28,1v.06a1.53,1.53,0,0,0,.28,1A.94.94,0,0,0,33.36,66.49Z"/><path class="cls-5" d="M38.6,62.56h3.53V63.8H40.22v1h1.54V66H40.22v1.72H38.6Z"/></svg>